<svg class="img-fluid" id="outputsvg" xmlns="http://www.w3.org/2000/svg" style="transform: matrix(1, 0, 0, 1, -0.455166, 11.3792); transform-origin: 50% 50%; cursor: move; max-height: none; transition: transform 200ms ease-in-out 0s;" width="800" height="800" viewBox="0 0 8000 8000"><g id="l3hFSy0WMomrWIf4qQLuegw" fill="rgb(19,53,94)" style="transform: none;"><g><path id="peKfA1Bow" d="M2480 5295 l0 -95 35 0 35 0 2 -402 c1 -222 1 -503 1 -625 l0 -223 98 0 c60 0 99 -4 99 -10 0 -6 27 -303 60 -661 33 -358 60 -655 60 -660 0 -5 64 -9 150 -9 114 0 150 3 150 13 0 7 27 307 60 667 33 360 60 656 60 658 0 6 130 1 130 -5 1 -5 20 -215 43 -468 l43 -460 117 -3 c64 -1 117 1 117 5 0 4 18 213 41 463 26 279 46 458 53 462 24 16 93 8 127 -15 19 -13 187 -139 374 -281 l340 -258 5 276 5 276 134 -98 c74 -53 243 -176 375 -273 133 -97 244 -175 249 -172 4 2 7 409 7 904 l0 899 35 0 35 0 0 95 0 95 -880 0 -880 0 0 -295 0 -295 -475 0 -475 0 0 295 0 295 -165 0 -165 0 0 -95z m570 -915 l0 -120 -120 0 -120 0 0 120 0 120 120 0 120 0 0 -120z m712 53 c2 -38 2 -92 0 -120 l-3 -53 -117 0 -117 0 -2 120 -3 120 119 0 119 0 4 -67z m718 -53 l0 -120 -119 0 -119 0 -4 29 c-2 16 -2 70 0 120 l4 91 119 0 119 0 0 -120z m710 0 l0 -120 -120 0 -120 0 0 120 0 120 120 0 120 0 0 -120z"></path><path id="p1Gad0hwZ0" d="M3530 2938 c1 -81 63 -220 124 -276 83 -77 135 -76 336 4 151 60 250 53 281 -21 6 -16 8 -13 8 15 1 52 -31 114 -73 139 -40 25 -156 40 -307 41 -105 0 -148 22 -163 83 l-10 37 -98 0 c-95 0 -98 -1 -98 -22z"></path><path id="pJs8afNj2" d="M2900 2537 c0 -70 63 -203 122 -257 100 -91 199 -98 418 -26 229 76 320 72 377 -13 l23 -34 0 42 c0 89 -53 149 -151 170 -26 6 -129 13 -230 17 -101 3 -201 10 -221 15 -40 10 -88 59 -88 90 0 18 -8 19 -125 19 -124 0 -125 0 -125 -23z"></path></g></g><g id="l5HzcDBydWYHH8xAxteCiJl" fill="rgb(34,174,225)" style="transform: none;"><g><path id="pH7azvbWj" d="M2140 6030 c-152 -15 -259 -60 -339 -145 -58 -62 -85 -112 -109 -202 -15 -60 -17 -117 -14 -503 3 -533 -9 -687 -67 -842 -42 -111 -139 -198 -220 -198 -16 0 -33 -5 -37 -11 -4 -7 -8 -61 -9 -121 -3 -123 -9 -114 87 -138 133 -34 211 -192 237 -480 7 -78 11 -289 9 -565 -3 -394 -1 -447 15 -509 23 -92 60 -156 122 -215 63 -60 114 -86 212 -111 81 -21 343 -38 406 -26 l37 7 0 118 0 119 -88 4 c-95 4 -139 21 -174 68 -41 55 -48 120 -59 505 -5 204 -13 487 -17 630 l-7 260 -41 86 c-48 99 -125 182 -204 219 -28 13 -50 26 -50 30 0 4 23 17 52 31 140 65 234 228 268 464 13 93 13 358 -1 629 -13 246 -3 398 33 515 33 108 85 141 221 141 l67 0 0 119 c0 115 -1 119 -22 125 -30 7 -211 5 -308 -4z"></path><path id="p13ehgqiES" d="M5548 6034 c-16 -5 -18 -20 -18 -125 l0 -119 73 0 c76 -1 136 -17 167 -45 31 -28 60 -121 77 -240 12 -95 13 -151 2 -410 -23 -567 1 -757 117 -921 47 -67 87 -101 158 -135 25 -13 46 -26 46 -29 0 -4 -22 -17 -49 -30 -56 -26 -138 -100 -174 -157 -13 -21 -35 -67 -50 -103 l-25 -65 -12 -550 c-15 -713 -20 -772 -83 -839 -38 -40 -88 -56 -179 -56 l-68 0 0 -119 c0 -115 1 -119 23 -125 12 -3 94 -4 182 -1 240 6 348 39 450 136 62 59 99 123 122 215 16 62 18 115 15 509 -2 276 2 487 9 565 26 288 104 446 237 480 96 24 90 15 87 138 -1 60 -5 114 -9 121 -4 6 -21 11 -37 11 -81 0 -178 87 -219 198 -60 159 -71 302 -68 842 3 389 1 442 -15 504 -22 87 -57 151 -113 208 -98 100 -217 136 -464 143 -91 2 -173 2 -182 -1z"></path><path id="paGwf51NW" d="M2889 5386 c-2 -2 -3 -117 -1 -255 l3 -251 400 0 399 0 -2 253 -3 252 -396 3 c-217 1 -397 0 -400 -2z"></path><path id="p1DkkSBBCT" d="M2555 4800 c0 -223 1 -314 2 -202 2 111 2 293 0 405 -1 111 -2 20 -2 -203z"></path><path id="p8kugJhCZ" d="M5440 4298 c-3 -499 -2 -904 3 -899 4 4 6 412 5 907 l-3 899 -5 -907z"></path><path id="p1Gdb4rseM" d="M3763 4435 c0 -38 2 -53 4 -32 2 20 2 52 0 70 -2 17 -4 1 -4 -38z"></path><path id="prv591J9u" d="M4233 4425 c0 -44 2 -61 4 -37 2 23 2 59 0 80 -2 20 -4 1 -4 -43z"></path><path id="pQgyVTRRI" d="M3522 4340 c0 -19 2 -27 5 -17 2 9 2 25 0 35 -3 9 -5 1 -5 -18z"></path><path id="pMx8ufbMe" d="M2553 4300 c0 -30 2 -43 4 -27 2 15 2 39 0 55 -2 15 -4 2 -4 -28z"></path><path id="pG1uJ6AbR" d="M2553 4015 c0 -38 2 -53 4 -32 2 20 2 52 0 70 -2 17 -4 1 -4 -38z"></path><path id="piRO0bbDZ" d="M3504 3040 l1 -25 115 0 115 -1 -112 3 c-106 3 -112 5 -116 26 -3 19 -4 18 -3 -3z"></path></g></g></svg>